<svg clip-rule="evenodd" fill-rule="evenodd" stroke-linejoin="round" stroke-miterlimit="1.41421" viewBox="0 0 300 136" xmlns="http://www.w3.org/2000/svg"><path d="m.245 1h300v135h-300z" fill="none"/><g fill-rule="nonzero"><path d="m181.147 101.138c-1.241 9.512.276 15.026 4.825 16.404 2.895.827 5.79.276 8.684-1.654 3.033-1.93 5.239-4.411 6.48-7.444.689-1.654.689-2.895.137-3.722-.551-.551-.827-.689-.965-.276-1.24 4.274-4.135 8.271-6.892 7.307-2.068-.69-2.619-5.101-1.654-13.234.413-2.758 1.24-7.858 1.378-9.512.138-.827.138-1.792 0-2.757 0-2.206-.827-2.895-2.619-3.447-5.652-1.654-13.234 2.482-18.335 10.339 1.241-5.927.827-9.925-1.516-11.993-3.443-2.895-8.397-.551-10.736.414l-.551.275c.551 4.687.551 9.788.138 15.302-.414 6.479-.414 11.58 0 15.577.55 4.825 5.091 5.79 9.357 3.585v-1.379c.551-9.925 4.687-19.713 8.547-23.711 1.93-2.067 3.446-2.757 4.549-2.205.689.275.965 2.067.276 4.687-.138 1.516-.69 5.1-1.103 7.444z"/><path d="m220.168 93.142c-.276 2.482-.414 4.963-.414 7.444-1.516 5.928-4.824 10.891-7.719 10.891-2.757 0-4.274-4.274-1.655-13.372 2.068-7.444 2.068-12.269-.137-14.337-2.895-2.895-8.134-.689-9.788.138l-.551.276c.275 3.033-.138 8.96-1.379 17.645-2.895 20.265 16.267 19.851 21.643 5.376.965 5.928 2.757 9.374 5.652 10.339 5.514 1.655 11.993-2.895 14.612-8.96.69-1.654.828-2.895.138-3.722-.551-.414-.827-.552-.965-.138-1.24 4.411-3.86 8.271-6.617 7.306-1.93-.551-2.619-4.963-1.93-13.372.552-6.065 1.241-10.339 1.93-12.82-4.687-4.687-11.717-3.171-12.82 7.306z"/><path d="m246.774 117.405c2.895.689 5.79 0 8.685-2.068 2.894-2.068 4.824-4.412 5.789-6.893.69-1.654.69-2.895.138-3.722-.551-.551-.827-.689-.965-.276-1.103 3.722-3.997 8.271-7.168 7.72-3.722-.138-3.722-8.271.551-27.709 2.206-10.063 3.447-17.231 3.584-21.229.138-4.136-.689-7.168-2.481-9.098-2.206-2.344-7.306-1.792-9.098-1.103-.965.413-1.654.689-2.206.965.414 5.652.552 10.752.138 15.439s-1.241 11.994-2.757 21.781c-2.619 15.991-.689 24.676 5.79 26.193z"/><path d="m264.695 117.405c2.895.689 5.79 0 8.685-2.068 2.894-2.068 4.824-4.412 5.789-6.893.69-1.654.69-2.895.138-3.722-.551-.551-.827-.689-.965-.276-1.103 3.722-3.998 8.271-7.168 7.72-3.722-.138-3.722-8.271.551-27.709 2.206-10.063 3.447-17.231 3.584-21.229.138-4.136-.689-7.168-2.481-9.098-2.206-2.344-7.306-1.792-9.098-1.103-.965.413-1.654.689-2.206.965.414 5.652.552 10.752.138 15.439s-1.241 11.994-2.757 21.781c-2.619 15.991-.689 24.676 5.79 26.193z"/><path d="m18.117 68.904c-1.162 9.441 2.469 14.96 7.843 15.541 5.664.581 11.328-3.341 14.669-10.312.726 5.228 3.195 8.278 7.116 9.295 6.391 1.307 12.781-3.195 15.105-8.424.726-1.743.726-3.05.145-3.921-.581-.581-.871-.726-1.017-.291-1.307 3.922-4.066 7.698-7.407 7.117-4.502-.726-4.357-10.021.436-28.176 2.614-10.166 3.921-17.428 3.776-21.931 0-4.502-1.162-7.842-3.34-10.021-2.469-2.324-7.553-1.743-9.295-1.017-.872.291-1.598.581-2.034.872.872 8.278.291 19.026-1.743 32.097-5.519-.145-10.747 1.452-15.83 4.938-4.938 3.486-7.698 8.279-8.424 14.233zm22.221-2.323c-1.307 6.39-5.083 11.473-8.133 11.473-2.76 0-4.502-4.502-3.341-12.054 1.598-8.279 6.827-12.926 13.072-12.926-.146 1.016-.436 2.178-.581 3.776-.436 3.34-.872 6.535-1.017 9.731z"/><path d="m87.104 61.506c3.05-5.373 2.179-12.054-2.614-14.814-3.34-2.469-9.295-1.162-14.669 1.598-5.228 2.759-10.021 10.021-10.747 18.881-.436 4.932 1.016 8.99 4.357 12.036 3.485 3.05 7.116 4.793 11.038 5.229 4.793.435 9.295-.291 13.507-2.324 4.212-2.034 6.826-4.357 8.133-7.11.726-1.884.726-3.189 0-4.058-.581-.435-.871-.58-.871-.145-1.308 4.203-7.553 7.391-13.798 7.246-4.502-.145-9.586-3.188-11.183-8.405 7.552.144 14.378-3.486 16.847-8.134zm-17.283 3.05c.436-5.954 2.179-10.747 4.938-14.378 2.469-3.631 5.664-2.469 5.664 2.759 0 5.955-4.357 12.636-10.602 14.234-.145-.727-.145-1.598 0-2.615z"/><path d="m122.397 65.996c2.033-4.499 2.759-8.853 2.324-12.917-.436-4.064-2.179-6.096-5.084-6.242-7.116 0-9.44 10.741-7.262 18.433.436 2.178 1.598 4.064 3.341 5.951-3.631 4.646-6.39 6.969-8.569 6.969-2.905 0-4.502-4.501-1.743-14.081 2.76-8.853 2.76-12.337 0-15.094-2.469-2.323-6.39-2.178-11.764.435.436 6.822.145 12.918-.726 18.578-1.307 10.308 2.469 16.117 8.133 16.698 1.888.145 4.502-.871 7.843-3.195 3.34-2.324 6.39-5.083 9.15-8.423 1.597 1.016 3.195 1.451 4.647 1.451 3.341 0 5.955-1.741 7.843-5.079.726-1.307.871-2.323.436-2.903-.436-.726-.726-.726-1.162-.291-2.469 3.194-4.648 4.79-6.536 4.935-1.016.145-2.178-.145-3.34-.58.871-1.307 1.743-2.903 2.469-4.645zm-6.536-1.887c-.581-4.644 1.017-8.273 3.195-8.128 2.179.436 2.324 4.5 0 9.87-.726 1.597-1.307 2.467-1.452 2.758-1.017-1.161-1.598-2.613-1.743-4.5z"/><path d="m168.353 37.326c3.929-8.231 4.116-16.088 1.31-18.333-2.432-2.806-5.987-3.555-10.663-2.245 0 5.799-1.123 12.159-3.368 18.894-3.18 9.353-7.482 20.765-13.095 34.421-5.612 13.469-10.288 25.067-14.217 34.608-3.928 9.54-5.986 15.9-6.36 19.081-.561 3.741 2.619 5.425 5.612 4.676l.187-.187c0-.561 0-1.87.561-5.051.748-3.554 2.993-9.54 6.548-17.771 3.741-8.418 7.295-16.088 10.85-23.01 3.554-7.108 7.857-15.901 13.095-26.189 5.237-10.289 8.418-16.65 9.54-18.894z"/></g></svg>