<?xml version="1.0" encoding="UTF-8" standalone="no"?><!DOCTYPE svg PUBLIC "-//W3C//DTD SVG 1.1//EN" "http://www.w3.org/Graphics/SVG/1.1/DTD/svg11.dtd"><svg width="100%" height="100%" viewBox="0 0 300 136" version="1.1" xmlns="http://www.w3.org/2000/svg" xmlns:xlink="http://www.w3.org/1999/xlink" xml:space="preserve" xmlns:serif="http://www.serif.com/" style="fill-rule:evenodd;clip-rule:evenodd;stroke-linejoin:round;stroke-miterlimit:1.41421;"><rect id="skinny" x="0.245" y="1" width="300" height="135" style="fill:none;"/><g><path d="M181.147,101.138c-1.241,9.512 0.276,15.026 4.825,16.404c2.895,0.827 5.79,0.276 8.684,-1.654c3.033,-1.93 5.239,-4.411 6.48,-7.444c0.689,-1.654 0.689,-2.895 0.137,-3.722c-0.551,-0.551 -0.827,-0.689 -0.965,-0.276c-1.24,4.274 -4.135,8.271 -6.892,7.307c-2.068,-0.69 -2.619,-5.101 -1.654,-13.234c0.413,-2.758 1.24,-7.858 1.378,-9.512c0.138,-0.827 0.138,-1.792 0,-2.757c0,-2.206 -0.827,-2.895 -2.619,-3.447c-5.652,-1.654 -13.234,2.482 -18.335,10.339c1.241,-5.927 0.827,-9.925 -1.516,-11.993c-3.443,-2.895 -8.397,-0.551 -10.736,0.414l-0.551,0.275c0.551,4.687 0.551,9.788 0.138,15.302c-0.414,6.479 -0.414,11.58 0,15.577c0.55,4.825 5.091,5.79 9.357,3.585l0,-1.379c0.551,-9.925 4.687,-19.713 8.547,-23.711c1.93,-2.067 3.446,-2.757 4.549,-2.205c0.689,0.275 0.965,2.067 0.276,4.687c-0.138,1.516 -0.69,5.1 -1.103,7.444Z" style="fill-rule:nonzero;"/><path d="M220.168,93.142c-0.276,2.482 -0.414,4.963 -0.414,7.444c-1.516,5.928 -4.824,10.891 -7.719,10.891c-2.757,0 -4.274,-4.274 -1.655,-13.372c2.068,-7.444 2.068,-12.269 -0.137,-14.337c-2.895,-2.895 -8.134,-0.689 -9.788,0.138l-0.551,0.276c0.275,3.033 -0.138,8.96 -1.379,17.645c-2.895,20.265 16.267,19.851 21.643,5.376c0.965,5.928 2.757,9.374 5.652,10.339c5.514,1.655 11.993,-2.895 14.612,-8.96c0.69,-1.654 0.828,-2.895 0.138,-3.722c-0.551,-0.414 -0.827,-0.552 -0.965,-0.138c-1.24,4.411 -3.86,8.271 -6.617,7.306c-1.93,-0.551 -2.619,-4.963 -1.93,-13.372c0.552,-6.065 1.241,-10.339 1.93,-12.82c-4.687,-4.687 -11.717,-3.171 -12.82,7.306Z" style="fill-rule:nonzero;"/><path d="M246.774,117.405c2.895,0.689 5.79,0 8.685,-2.068c2.894,-2.068 4.824,-4.412 5.789,-6.893c0.69,-1.654 0.69,-2.895 0.138,-3.722c-0.551,-0.551 -0.827,-0.689 -0.965,-0.276c-1.103,3.722 -3.997,8.271 -7.168,7.72c-3.722,-0.138 -3.722,-8.271 0.551,-27.709c2.206,-10.063 3.447,-17.231 3.584,-21.229c0.138,-4.136 -0.689,-7.168 -2.481,-9.098c-2.206,-2.344 -7.306,-1.792 -9.098,-1.103c-0.965,0.413 -1.654,0.689 -2.206,0.965c0.414,5.652 0.552,10.752 0.138,15.439c-0.414,4.687 -1.241,11.994 -2.757,21.781c-2.619,15.991 -0.689,24.676 5.79,26.193Z" style="fill-rule:nonzero;"/><path d="M264.695,117.405c2.895,0.689 5.79,0 8.685,-2.068c2.894,-2.068 4.824,-4.412 5.789,-6.893c0.69,-1.654 0.69,-2.895 0.138,-3.722c-0.551,-0.551 -0.827,-0.689 -0.965,-0.276c-1.103,3.722 -3.998,8.271 -7.168,7.72c-3.722,-0.138 -3.722,-8.271 0.551,-27.709c2.206,-10.063 3.447,-17.231 3.584,-21.229c0.138,-4.136 -0.689,-7.168 -2.481,-9.098c-2.206,-2.344 -7.306,-1.792 -9.098,-1.103c-0.965,0.413 -1.654,0.689 -2.206,0.965c0.414,5.652 0.552,10.752 0.138,15.439c-0.414,4.687 -1.241,11.994 -2.757,21.781c-2.619,15.991 -0.689,24.676 5.79,26.193Z" style="fill-rule:nonzero;"/></g><g><path d="M18.117,68.904c-1.162,9.441 2.469,14.96 7.843,15.541c5.664,0.581 11.328,-3.341 14.669,-10.312c0.726,5.228 3.195,8.278 7.116,9.295c6.391,1.307 12.781,-3.195 15.105,-8.424c0.726,-1.743 0.726,-3.05 0.145,-3.921c-0.581,-0.581 -0.871,-0.726 -1.017,-0.291c-1.307,3.922 -4.066,7.698 -7.407,7.117c-4.502,-0.726 -4.357,-10.021 0.436,-28.176c2.614,-10.166 3.921,-17.428 3.776,-21.931c0,-4.502 -1.162,-7.842 -3.34,-10.021c-2.469,-2.324 -7.553,-1.743 -9.295,-1.017c-0.872,0.291 -1.598,0.581 -2.034,0.872c0.872,8.278 0.291,19.026 -1.743,32.097c-5.519,-0.145 -10.747,1.452 -15.83,4.938c-4.938,3.486 -7.698,8.279 -8.424,14.233Zm22.221,-2.323c-1.307,6.39 -5.083,11.473 -8.133,11.473c-2.76,0 -4.502,-4.502 -3.341,-12.054c1.598,-8.279 6.827,-12.926 13.072,-12.926c-0.146,1.016 -0.436,2.178 -0.581,3.776c-0.436,3.34 -0.872,6.535 -1.017,9.731Z" style="fill-rule:nonzero;"/><path d="M87.104,61.506c3.05,-5.373 2.179,-12.054 -2.614,-14.814c-3.34,-2.469 -9.295,-1.162 -14.669,1.598c-5.228,2.759 -10.021,10.021 -10.747,18.881c-0.436,4.932 1.016,8.99 4.357,12.036c3.485,3.05 7.116,4.793 11.038,5.229c4.793,0.435 9.295,-0.291 13.507,-2.324c4.212,-2.034 6.826,-4.357 8.133,-7.11c0.726,-1.884 0.726,-3.189 0,-4.058c-0.581,-0.435 -0.871,-0.58 -0.871,-0.145c-1.308,4.203 -7.553,7.391 -13.798,7.246c-4.502,-0.145 -9.586,-3.188 -11.183,-8.405c7.552,0.144 14.378,-3.486 16.847,-8.134Zm-17.283,3.05c0.436,-5.954 2.179,-10.747 4.938,-14.378c2.469,-3.631 5.664,-2.469 5.664,2.759c0,5.955 -4.357,12.636 -10.602,14.234c-0.145,-0.727 -0.145,-1.598 0,-2.615Z" style="fill-rule:nonzero;"/><path d="M122.397,65.996c2.033,-4.499 2.759,-8.853 2.324,-12.917c-0.436,-4.064 -2.179,-6.096 -5.084,-6.242c-7.116,0 -9.44,10.741 -7.262,18.433c0.436,2.178 1.598,4.064 3.341,5.951c-3.631,4.646 -6.39,6.969 -8.569,6.969c-2.905,0 -4.502,-4.501 -1.743,-14.081c2.76,-8.853 2.76,-12.337 0,-15.094c-2.469,-2.323 -6.39,-2.178 -11.764,0.435c0.436,6.822 0.145,12.918 -0.726,18.578c-1.307,10.308 2.469,16.117 8.133,16.698c1.888,0.145 4.502,-0.871 7.843,-3.195c3.34,-2.324 6.39,-5.083 9.15,-8.423c1.597,1.016 3.195,1.451 4.647,1.451c3.341,0 5.955,-1.741 7.843,-5.079c0.726,-1.307 0.871,-2.323 0.436,-2.903c-0.436,-0.726 -0.726,-0.726 -1.162,-0.291c-2.469,3.194 -4.648,4.79 -6.536,4.935c-1.016,0.145 -2.178,-0.145 -3.34,-0.58c0.871,-1.307 1.743,-2.903 2.469,-4.645Zm-6.536,-1.887c-0.581,-4.644 1.017,-8.273 3.195,-8.128c2.179,0.436 2.324,4.5 0,9.87c-0.726,1.597 -1.307,2.467 -1.452,2.758c-1.017,-1.161 -1.598,-2.613 -1.743,-4.5Z" style="fill-rule:nonzero;"/></g><path d="M168.353,37.326c3.929,-8.231 4.116,-16.088 1.31,-18.333c-2.432,-2.806 -5.987,-3.555 -10.663,-2.245c0,5.799 -1.123,12.159 -3.368,18.894c-3.18,9.353 -7.482,20.765 -13.095,34.421c-5.612,13.469 -10.288,25.067 -14.217,34.608c-3.928,9.54 -5.986,15.9 -6.36,19.081c-0.561,3.741 2.619,5.425 5.612,4.676l0.187,-0.187c0,-0.561 0,-1.87 0.561,-5.051c0.748,-3.554 2.993,-9.54 6.548,-17.771c3.741,-8.418 7.295,-16.088 10.85,-23.01c3.554,-7.108 7.857,-15.901 13.095,-26.189c5.237,-10.289 8.418,-16.65 9.54,-18.894Z" style="fill-rule:nonzero;"/></svg>